<?xml version="1.0" encoding="utf-8"?>
<!-- Generator: Adobe Illustrator 25.2.1, SVG Export Plug-In . SVG Version: 6.00 Build 0)  -->
<svg version="1.1" id="Layer_1" xmlns="http://www.w3.org/2000/svg" xmlns:xlink="http://www.w3.org/1999/xlink" x="0px" y="0px"
	 width="81.5px" height="21px" viewBox="0 0 81.5 21" style="enable-background:new 0 0 81.5 21;" xml:space="preserve">
<style type="text/css">
	.st0{fill-rule:evenodd;clip-rule:evenodd;fill:#FFFFFF;}
	.st1{filter:url(#Adobe_OpacityMaskFilter);}
	.st2{mask:url(#mask-2_1_);fill-rule:evenodd;clip-rule:evenodd;fill:#FFFFFF;}
	.st3{fill-rule:evenodd;clip-rule:evenodd;fill:#0555FF;}
	.st4{filter:url(#Adobe_OpacityMaskFilter_1_);}
	.st5{mask:url(#mask-4_1_);fill-rule:evenodd;clip-rule:evenodd;fill:#FFFFFF;}
</style>
<g id="Page-1">
	<g id="Identity" transform="translate(-84.000000, -279.000000)">
		<g id="affirm-logo-white" transform="translate(84.000000, 279.000000)">
			<path id="Fill-1" class="st0" d="M42.2,4.8c-0.3,0-0.6-0.1-0.9-0.2c-0.3-0.1-0.6-0.3-0.8-0.5c-0.2-0.2-0.4-0.5-0.5-0.8
				c-0.1-0.3-0.2-0.6-0.2-0.9s0.1-0.7,0.2-0.9c0.1-0.3,0.3-0.5,0.5-0.8c0.2-0.2,0.5-0.4,0.8-0.5C41.6,0.1,41.9,0,42.2,0
				c0.7,0,1.2,0.2,1.7,0.7c0.5,0.5,0.7,1,0.7,1.7c0,0.7-0.2,1.2-0.7,1.7C43.5,4.6,42.9,4.8,42.2,4.8L42.2,4.8z M35.1,20.9h-3.8V10.1
				H26v10.9h-3.8V10.1h-2.5V6.9h2.5V5.5c0-0.9,0.1-1.6,0.4-2.3c0.3-0.7,0.6-1.2,1.1-1.7c0.5-0.4,1-0.8,1.7-1
				c0.7-0.2,1.4-0.4,2.2-0.4c0.4,0,0.7,0,0.9,0.1c0.2,0,0.4,0.1,0.7,0.2l-0.2,3.5c-0.1-0.1-0.3-0.1-0.5-0.1c-0.2,0-0.4-0.1-0.7-0.1
				c-0.6,0-1,0.2-1.3,0.5C26.1,4.6,26,5.1,26,5.7v1.1h5.3V5.5c0-0.9,0.1-1.6,0.4-2.3c0.3-0.7,0.6-1.2,1.1-1.7c0.5-0.4,1-0.8,1.7-1
				c0.7-0.2,1.4-0.4,2.2-0.4c0.4,0,0.7,0,0.9,0.1c0.2,0,0.4,0.1,0.7,0.2L38,3.9c-0.1-0.1-0.3-0.1-0.5-0.1c-0.2,0-0.4-0.1-0.7-0.1
				c-0.6,0-1,0.2-1.3,0.5c-0.3,0.4-0.5,0.9-0.5,1.5v1.1h9.1v14.1h-3.8V10.1h-5.3V20.9z"/>
			<path id="Fill-3" class="st0" d="M47.6,6.9h3.5v2h0.2c0.2-0.3,0.4-0.7,0.7-0.9c0.3-0.3,0.6-0.5,1-0.8c0.4-0.2,0.7-0.4,1.1-0.5
				c0.4-0.1,0.8-0.2,1.2-0.2c0.5,0,0.9,0.1,1.3,0.2C57,6.7,57.3,6.8,57.6,7l-1,3.4c-0.2-0.1-0.5-0.2-0.8-0.3c-0.3-0.1-0.6-0.1-1-0.1
				c-0.5,0-1,0.1-1.4,0.3c-0.4,0.2-0.8,0.5-1.1,0.9c-0.3,0.4-0.5,0.8-0.7,1.3c-0.2,0.5-0.2,1-0.2,1.6v6.9h-3.8V6.9z"/>
			<g id="Group-7" transform="translate(66.494645, 7.026052)">
				<g id="Clip-6">
				</g>
				<defs>
					<filter id="Adobe_OpacityMaskFilter" filterUnits="userSpaceOnUse" x="-7.2" y="-0.6" width="22.2" height="14.5">
						<feColorMatrix  type="matrix" values="1 0 0 0 0  0 1 0 0 0  0 0 1 0 0  0 0 0 1 0"/>
					</filter>
				</defs>
				<mask maskUnits="userSpaceOnUse" x="-7.2" y="-0.6" width="22.2" height="14.5" id="mask-2_1_">
					<g class="st1">
						<polygon id="path-1_1_" class="st0" points="-7.2,-0.6 15,-0.6 15,13.9 -7.2,13.9 						"/>
					</g>
				</mask>
				<path id="Fill-5" class="st2" d="M-7.2-0.2h3.5v1.8h0.2C-3,1-2.4,0.4-1.7,0c0.8-0.4,1.6-0.6,2.5-0.6c1.1,0,2,0.2,2.7,0.7
					C4.3,0.6,4.8,1.2,5.1,2C5.5,1.3,6.2,0.6,7,0.1c0.8-0.5,1.8-0.8,2.9-0.8c0.9,0,1.6,0.1,2.2,0.4c0.6,0.3,1.2,0.7,1.6,1.2
					c0.4,0.5,0.7,1.1,0.9,1.8C14.9,3.5,15,4.2,15,5v8.9h-3.8V5.7c0-1.9-0.8-2.9-2.4-2.9C8.3,2.9,7.9,3,7.5,3.2
					c-0.4,0.2-0.7,0.5-1,0.9C6.3,4.5,6.1,4.9,6,5.4C5.8,5.9,5.7,6.5,5.7,7.1v6.8H2V5.7c0-1.9-0.8-2.9-2.5-2.9C-1,2.9-1.4,3-1.8,3.2
					c-0.4,0.2-0.7,0.5-0.9,0.9c-0.2,0.4-0.4,0.8-0.6,1.3c-0.1,0.5-0.2,1.1-0.2,1.7v6.8h-3.8V-0.2z"/>
			</g>
			<polygon id="Fill-8" class="st0" points="12,0.3 7.7,0.3 15.4,21 19.7,21 			"/>
			<polygon id="Fill-10" class="st3" points="12,0.3 7.7,0.3 5.1,7.2 9.4,7.2 			"/>
			<g id="Group-14" transform="translate(0.000000, 15.848966)">
				<g id="Clip-13">
				</g>
				<defs>
					<filter id="Adobe_OpacityMaskFilter_1_" filterUnits="userSpaceOnUse" x="0" y="-1.7" width="6.9" height="6.9">
						<feColorMatrix  type="matrix" values="1 0 0 0 0  0 1 0 0 0  0 0 1 0 0  0 0 0 1 0"/>
					</filter>
				</defs>
				<mask maskUnits="userSpaceOnUse" x="0" y="-1.7" width="6.9" height="6.9" id="mask-4_1_">
					<g class="st4">
						<polygon id="path-3_1_" class="st0" points="0,-1.7 6.9,-1.7 6.9,5.2 0,5.2 						"/>
					</g>
				</mask>
				<polygon id="Fill-12" class="st5" points="0,5.2 4.3,5.2 6.9,-1.7 2.6,-1.7 				"/>
			</g>
		</g>
	</g>
</g>
</svg>
